<svg width="210" height="78" viewBox="0 0 210 78" fill="none" xmlns="http://www.w3.org/2000/svg">
<path d="M16 27.016H5.176V24.2H30.08V27.016H19.256V55H16V27.016ZM61.0216 24.2V55H57.8096V40.788H38.5376V55H35.2816V24.2H38.5376V37.928H57.8096V24.2H61.0216ZM92.8546 52.184V55H71.0746V24.2H92.1946V27.016H74.3306V37.972H90.2586V40.744H74.3306V52.184H92.8546ZM137.764 24.2V55H134.552V40.788H115.28V55H112.024V24.2H115.28V37.928H134.552V24.2H137.764ZM161.281 55.264C158.23 55.264 155.458 54.5893 152.965 53.24C150.501 51.8613 148.565 49.984 147.157 47.608C145.778 45.232 145.089 42.5627 145.089 39.6C145.089 36.6373 145.778 33.968 147.157 31.592C148.565 29.216 150.501 27.3533 152.965 26.004C155.458 24.6253 158.23 23.936 161.281 23.936C164.331 23.936 167.074 24.6107 169.509 25.96C171.973 27.3093 173.909 29.1867 175.317 31.592C176.725 33.968 177.429 36.6373 177.429 39.6C177.429 42.5627 176.725 45.2467 175.317 47.652C173.909 50.028 171.973 51.8907 169.509 53.24C167.074 54.5893 164.331 55.264 161.281 55.264ZM161.281 52.36C163.715 52.36 165.915 51.8173 167.881 50.732C169.846 49.6173 171.386 48.092 172.501 46.156C173.615 44.1907 174.173 42.0053 174.173 39.6C174.173 37.1947 173.615 35.024 172.501 33.088C171.386 31.1227 169.846 29.5973 167.881 28.512C165.915 27.3973 163.715 26.84 161.281 26.84C158.846 26.84 156.631 27.3973 154.637 28.512C152.671 29.5973 151.117 31.1227 149.973 33.088C148.858 35.024 148.301 37.1947 148.301 39.6C148.301 42.0053 148.858 44.1907 149.973 46.156C151.117 48.092 152.671 49.6173 154.637 50.732C156.631 51.8173 158.846 52.36 161.281 52.36ZM190.281 27.016H179.457V24.2H204.361V27.016H193.537V55H190.281V27.016Z" fill="black"/>
</svg>
